<svg xmlns="http://www.w3.org/2000/svg" width="17.517" height="13" viewBox="0 0 17.517 13">
  <path id="right-arrow" d="M6.35,13.5a1.73,1.73,0,0,0,.663-.132,1.708,1.708,0,0,0,1.061-1.581V10.314a.684.684,0,1,0-1.369,0v1.472a.334.334,0,0,1-.215.316.34.34,0,0,1-.383-.073L1.568,7.485a.688.688,0,0,1,0-.971L6.107,1.969A.34.34,0,0,1,6.49,1.9a.334.334,0,0,1,.215.316V6.349A1.37,1.37,0,0,0,8.074,7.718h8.759a.684.684,0,0,0,0-1.369H8.074V2.212A1.72,1.72,0,0,0,5.139,1L.6,5.546a2.059,2.059,0,0,0,0,2.906L5.139,13A1.71,1.71,0,0,0,6.35,13.5Zm0,0" transform="translate(0 -0.499)" fill="#1c1c53"/>
</svg>
