<svg xmlns="http://www.w3.org/2000/svg" width="17.517" height="13" viewBox="0 0 17.517 13">
  <path id="right-arrow" d="M11.167,13.5a1.73,1.73,0,0,1-.663-.132,1.708,1.708,0,0,1-1.061-1.581V10.314a.684.684,0,1,1,1.369,0v1.472a.334.334,0,0,0,.215.316.34.34,0,0,0,.383-.073l4.539-4.545a.688.688,0,0,0,0-.971L11.41,1.969a.34.34,0,0,0-.383-.073.334.334,0,0,0-.215.316V6.349A1.37,1.37,0,0,1,9.444,7.718H.684a.684.684,0,0,1,0-1.369H9.444V2.212A1.72,1.72,0,0,1,12.379,1l4.539,4.544a2.059,2.059,0,0,1,0,2.906L12.379,13A1.71,1.71,0,0,1,11.167,13.5Zm0,0" transform="translate(0 -0.499)" fill="#1c1c53"/>
</svg>
